<?xml version="1.0" standalone="no"?>
<!DOCTYPE svg PUBLIC "-//W3C//DTD SVG 20010904//EN"
 "http://www.w3.org/TR/2001/REC-SVG-20010904/DTD/svg10.dtd">
<svg version="1.0" xmlns="http://www.w3.org/2000/svg"
 width="479.000000pt" height="345.000000pt" viewBox="0 0 479.000000 345.000000"
 preserveAspectRatio="xMidYMid meet">

<g transform="translate(0.000000,345.000000) scale(0.100000,-0.100000)"
fill="#000000" stroke="none">
<path d="M1331 3349 c-101 -20 -158 -89 -198 -243 -45 -171 -33 -250 42 -282
51 -21 143 -18 188 6 31 17 37 17 37 5 0 -12 13 -15 58 -15 l57 0 28 128 c16
70 31 135 33 145 5 15 -5 17 -104 17 l-110 0 -11 -44 c-15 -60 -15 -59 19 -54
35 5 40 -14 15 -62 -30 -58 -98 -65 -111 -13 -7 28 27 202 51 260 16 39 57 67
85 58 16 -5 20 -15 20 -46 l0 -39 79 0 79 0 7 30 c25 114 -96 182 -264 149z"/>
<path d="M2750 3351 c-103 -21 -160 -81 -160 -167 0 -65 18 -88 106 -140 37
-21 74 -49 82 -62 31 -47 -26 -100 -78 -72 -18 10 -21 18 -17 46 l6 34 -79 0
-78 0 -7 -39 c-8 -47 12 -92 52 -118 22 -14 49 -18 133 -18 93 0 110 3 150 25
62 35 90 80 90 144 0 66 -15 86 -99 136 -108 64 -126 98 -69 130 36 20 63 4
63 -36 l1 -29 74 0 75 0 0 54 c-1 47 -5 57 -30 77 -47 37 -134 51 -215 35z"/>
<path d="M1705 3338 c-7 -16 -115 -499 -115 -510 0 -5 78 -7 172 -6 l173 3 11
53 12 52 -93 0 -92 0 10 50 10 50 84 0 c92 0 91 -1 106 78 l7 32 -86 0 c-76 0
-85 2 -80 18 2 9 7 32 11 50 l7 32 93 0 93 0 11 50 c6 28 11 53 11 55 0 3 -77
5 -170 5 -127 0 -172 -3 -175 -12z"/>
<path d="M2116 3342 c-6 -10 -116 -495 -116 -511 0 -16 137 -15 143 2 2 6 17
78 33 159 15 81 29 146 31 145 1 -2 12 -61 23 -132 11 -72 23 -143 26 -158 l6
-28 91 3 92 3 57 250 c31 138 57 256 57 263 1 10 -17 12 -71 10 l-73 -3 -31
-155 c-33 -169 -42 -201 -43 -155 -1 17 -12 93 -26 169 -14 77 -25 141 -25
143 0 7 -169 2 -174 -5z"/>
<path d="M3096 3341 c-6 -8 -116 -497 -116 -513 0 -4 76 -8 169 -8 l169 0 5
29 c3 16 9 40 13 55 l6 26 -92 0 -92 0 7 33 c14 70 10 67 96 67 87 0 87 -1
104 78 l7 32 -82 0 -83 0 7 42 c4 22 9 45 12 50 3 4 45 8 94 8 l89 0 10 38
c22 76 30 72 -153 72 -91 0 -167 -4 -170 -9z"/>
<path d="M3496 3333 c-3 -10 -28 -121 -56 -248 -28 -126 -53 -238 -56 -247 -5
-16 3 -18 73 -18 l79 0 23 101 22 100 37 -3 c36 -3 37 -4 36 -43 0 -22 -4 -66
-9 -97 l-8 -58 80 0 80 0 13 100 c13 100 13 100 -10 125 -17 18 -19 25 -9 25
17 0 61 43 79 79 7 13 13 49 14 79 1 47 -2 57 -26 77 -37 32 -108 45 -243 45
-100 0 -114 -2 -119 -17z m208 -89 c10 -4 16 -18 16 -41 0 -44 -37 -83 -80
-83 -34 0 -35 5 -19 80 10 46 13 50 39 50 16 0 35 -3 44 -6z"/>
<path d="M2743 2576 c-139 -152 -195 -406 -129 -586 46 -125 65 -199 81 -315
16 -119 35 -418 35 -547 l0 -79 38 3 37 3 7 279 c9 336 19 439 45 475 45 60
94 39 226 -99 109 -114 205 -247 303 -419 104 -183 177 -243 310 -256 82 -8
821 12 914 25 106 15 121 64 42 140 -53 51 -134 93 -386 203 l-169 74 -51 -19
c-40 -15 -70 -19 -136 -16 -73 3 -96 8 -155 37 -99 49 -170 125 -399 431 -342
455 -533 701 -555 714 -5 3 -31 -18 -58 -48z"/>
<path d="M2165 2580 c-38 -9 -75 -27 -208 -107 l-107 -65 83 -62 c94 -70 178
-110 209 -101 28 10 64 93 83 198 22 120 8 152 -60 137z"/>
<path d="M1447 2524 c-18 -10 -40 -40 -65 -92 l-37 -77 107 0 c101 0 108 1
135 26 42 39 72 53 133 59 l55 5 -62 33 c-111 57 -213 75 -266 46z"/>
<path d="M1273 2408 c-6 -7 -13 -26 -15 -42 -5 -27 -4 -28 24 -22 17 3 34 6
38 6 4 0 12 12 19 27 10 21 9 28 -1 34 -19 13 -54 11 -65 -3z"/>
<path d="M1655 2376 c-17 -7 -36 -20 -43 -28 -11 -13 -7 -19 23 -37 37 -22 44
-41 21 -60 -11 -9 -23 -7 -52 9 -21 11 -44 20 -50 20 -20 0 -68 -71 -58 -85
44 -59 46 -65 34 -80 -19 -23 -36 -18 -61 17 l-23 31 -52 -58 -51 -59 18 -30
c32 -53 -13 -93 -47 -40 l-17 25 -54 -53 c-56 -56 -62 -68 -38 -88 8 -7 15
-23 15 -36 0 -31 -42 -33 -62 -3 l-14 21 -32 -27 c-30 -25 -31 -28 -17 -48 21
-30 19 -46 -15 -118 l-30 -64 6 76 c7 87 0 98 -45 74 -37 -19 -149 -20 -173
-1 -20 14 -24 51 -8 61 20 12 9 23 -27 27 -29 4 -46 -2 -87 -30 -81 -54 -211
-116 -341 -162 -66 -23 -135 -51 -153 -62 -44 -27 -82 -79 -89 -122 -5 -34 -4
-36 21 -36 44 0 83 -27 127 -88 23 -31 67 -83 98 -115 l56 -59 -40 16 c-60 25
-87 48 -122 107 -76 125 -205 128 -172 3 23 -83 92 -127 295 -189 274 -84 585
-145 637 -126 17 7 36 5 63 -4 40 -15 188 -20 243 -9 17 4 41 17 53 29 18 18
29 21 70 17 74 -7 161 41 265 145 75 76 84 82 107 73 14 -5 55 -14 90 -21 54
-9 74 -8 121 6 47 13 58 21 67 45 8 25 13 28 28 20 26 -14 58 -12 119 6 43 12
54 21 63 45 8 24 15 29 43 29 89 0 125 46 125 161 0 46 -6 94 -16 120 -9 24
-22 64 -29 89 l-13 45 -12 -30 c-24 -62 -90 -106 -266 -176 -80 -31 -228 -103
-254 -122 -8 -6 1 6 19 26 36 38 149 101 292 163 145 62 189 109 189 205 0 53
-17 165 -27 182 -3 4 -23 -18 -45 -50 -49 -72 -150 -175 -290 -299 -59 -53
-140 -137 -180 -187 -166 -211 -285 -302 -455 -349 -215 -59 -736 0 -957 107
-39 20 -62 33 -51 29 96 -28 263 -66 370 -85 110 -20 163 -23 345 -23 189 1
225 3 295 23 178 48 287 121 406 273 40 51 165 188 279 303 113 116 221 229
239 253 30 39 32 46 26 90 -4 26 -12 58 -18 72 -12 25 -16 21 -212 -180 -111
-113 -264 -281 -342 -375 -154 -185 -197 -221 -309 -260 -133 -46 -351 -55
-569 -24 -131 19 -483 118 -532 149 -11 7 -12 10 -3 7 8 -2 63 -18 121 -35
230 -68 416 -94 679 -95 235 0 333 24 446 109 58 44 85 75 234 264 58 74 187
218 286 320 l181 185 -25 73 -26 73 -27 -58 c-14 -32 -38 -69 -52 -82 -51 -47
-134 -24 -262 72 -115 85 -193 107 -270 73z m188 -232 c60 -30 207 -115 207
-120 0 -7 -39 12 -124 60 -49 28 -112 58 -140 68 -41 14 -45 17 -23 18 15 0
51 -12 80 -26z m-72 -160 c72 -36 128 -68 126 -70 -2 -3 -60 22 -127 56 -68
33 -129 60 -137 60 -8 0 -11 5 -8 10 3 6 8 10 11 10 3 0 64 -30 135 -66z
m-118 -156 c71 -34 124 -64 119 -66 -6 -2 -48 16 -94 39 -45 23 -111 52 -146
64 -73 26 -93 41 -42 31 19 -3 93 -34 163 -68z m-136 -136 c73 -36 130 -68
128 -71 -5 -5 -283 127 -300 142 -22 20 47 -8 172 -71z m-653 -23 c32 -6 70
-6 101 0 46 9 48 8 30 -6 -30 -22 -157 -13 -212 16 -52 26 -56 36 -7 15 20 -8
59 -19 88 -25z m523 -107 c68 -32 119 -58 114 -60 -13 -4 -96 31 -196 83 -118
61 -72 48 82 -23z m953 -16 c0 -15 -307 -152 -317 -142 -2 2 40 22 94 46 54
23 125 55 158 70 70 33 65 31 65 26z"/>
<path d="M1245 2293 c-23 -3 -39 -17 -68 -60 -21 -30 -37 -57 -35 -58 2 -1 19
0 38 2 29 4 42 14 74 59 22 30 42 52 45 49 2 -3 -10 -26 -28 -51 -18 -26 -31
-47 -29 -48 2 -2 30 -8 63 -14 33 -6 70 -14 81 -17 15 -5 23 -1 28 11 5 13 -9
33 -51 76 -31 32 -64 57 -73 56 -8 0 -28 -3 -45 -5z"/>
<path d="M1415 2265 c22 -19 43 -34 47 -35 4 0 16 13 27 29 l21 29 -23 6 c-12
3 -42 6 -67 6 l-45 0 40 -35z"/>
<path d="M1251 2131 c0 -3 18 -21 38 -38 l38 -33 23 25 c13 14 21 27 19 29 -8
8 -119 24 -118 17z"/>
<path d="M1095 2122 c-5 -4 -32 -31 -58 -59 -47 -49 -48 -50 -20 -45 15 2 53
29 85 58 53 51 55 54 30 54 -15 0 -31 -4 -37 -8z"/>
<path d="M1136 2074 l-49 -54 34 0 c19 0 57 -6 86 -14 45 -12 53 -12 66 2 14
13 11 20 -31 68 -25 30 -48 54 -51 53 -3 -1 -28 -25 -55 -55z"/>
<path d="M1125 1947 c22 -20 43 -36 48 -37 14 0 49 42 40 51 -4 4 -35 11 -68
15 l-60 7 40 -36z"/>
<path d="M880 1915 l-60 -55 38 0 c32 0 45 8 92 55 l54 55 -32 0 c-25 0 -45
-12 -92 -55z"/>
<path d="M976 1911 l-57 -58 53 -7 c29 -3 67 -9 83 -12 22 -4 38 0 55 14 l24
19 -43 52 c-24 28 -46 51 -50 51 -4 0 -33 -26 -65 -59z"/>
<path d="M853 1799 c-46 -46 54 -80 132 -45 l30 14 -37 16 c-54 23 -111 30
-125 15z"/>
<path d="M682 757 c-33 -19 -51 -50 -58 -99 -13 -91 46 -156 128 -145 48 6 52
10 44 35 -6 17 -10 19 -35 9 -40 -15 -78 10 -87 57 -13 70 29 123 87 110 19
-4 28 0 33 12 4 10 1 21 -6 26 -19 12 -80 9 -106 -5z"/>
<path d="M890 757 c-59 -29 -77 -145 -33 -205 46 -62 149 -48 179 23 51 122
-40 235 -146 182z m86 -48 c29 -32 26 -115 -5 -140 -13 -10 -27 -19 -31 -19
-4 0 -18 9 -31 19 -20 16 -24 29 -24 71 0 42 4 55 24 71 30 24 43 24 67 -2z"/>
<path d="M1096 728 c-3 -24 -8 -80 -11 -125 l-5 -83 25 0 c23 0 25 3 26 53 1
47 16 120 18 89 1 -7 11 -36 22 -63 30 -70 52 -66 88 14 l28 62 7 -77 c7 -75
9 -78 33 -78 l26 0 -7 73 c-16 179 -16 178 -43 175 -21 -2 -30 -15 -53 -73
-15 -38 -31 -70 -35 -70 -4 0 -20 32 -35 70 -23 59 -32 71 -53 73 -23 3 -26
-1 -31 -40z"/>
<path d="M1390 645 l0 -125 75 0 c68 0 75 2 75 20 0 17 -7 20 -50 20 l-50 0 0
35 c0 34 1 35 40 35 33 0 40 3 40 20 0 17 -7 20 -40 20 -38 0 -40 2 -40 30 0
29 2 30 45 30 38 0 45 3 45 20 0 18 -7 20 -70 20 l-70 0 0 -125z"/>
<path d="M1580 645 l0 -125 24 0 c22 0 25 5 28 43 4 54 22 54 51 2 16 -29 30
-41 50 -43 33 -4 33 -2 2 49 l-26 40 21 26 c54 69 4 133 -106 133 l-44 0 0
-125z m104 69 c29 -29 12 -64 -31 -64 -19 0 -23 5 -23 33 0 50 23 63 54 31z"/>
<path d="M1838 753 c-38 -24 -53 -58 -52 -118 0 -65 21 -99 69 -115 48 -16
105 -5 105 19 0 26 -8 30 -40 18 -39 -15 -77 11 -86 58 -13 69 33 124 92 109
28 -7 46 22 23 37 -23 14 -82 10 -111 -8z"/>
<path d="M2000 645 l0 -125 25 0 25 0 0 125 0 125 -25 0 -25 0 0 -125z"/>
<path d="M2141 702 c-11 -37 -29 -93 -40 -125 l-20 -58 26 3 c19 2 29 10 33
28 5 21 12 25 47 28 38 3 41 1 46 -27 5 -25 12 -31 32 -31 14 0 25 3 25 8 0 4
-16 60 -37 125 -35 113 -37 117 -64 117 -26 0 -30 -5 -48 -68z m64 -49 c6 -31
5 -33 -20 -33 -21 0 -26 4 -21 16 3 9 9 27 12 41 8 30 19 20 29 -24z"/>
<path d="M2327 763 c-4 -3 -7 -60 -7 -125 l0 -118 75 0 c68 0 75 2 75 20 0 17
-7 20 -50 20 l-50 0 0 105 c0 95 -2 105 -18 105 -10 0 -22 -3 -25 -7z"/>
<path d="M2509 768 c-1 -2 -2 -58 -3 -126 l-1 -122 28 0 28 0 -3 123 c-3 118
-4 122 -25 125 -13 2 -23 2 -24 0z"/>
<path d="M2600 750 c0 -17 7 -20 50 -20 28 0 50 -5 50 -10 0 -6 -22 -44 -50
-85 -27 -41 -50 -83 -50 -95 0 -19 6 -20 90 -20 83 0 90 2 90 20 0 16 -8 19
-60 22 l-60 3 55 82 c30 45 55 92 55 103 0 18 -6 20 -85 20 -78 0 -85 -2 -85
-20z"/>
<path d="M2844 653 c-20 -65 -39 -122 -41 -126 -3 -5 8 -7 23 -5 21 2 30 10
34 28 5 20 13 26 43 28 34 3 39 0 48 -27 8 -23 17 -31 35 -31 13 0 24 6 23 13
0 6 -17 62 -37 122 -34 101 -39 110 -64 113 -26 3 -28 0 -64 -115z m80 -5 c6
-25 4 -28 -20 -28 -21 0 -25 4 -19 18 3 9 9 30 12 46 5 25 7 27 13 10 4 -10
10 -31 14 -46z"/>
<path d="M3040 646 l0 -126 66 0 c58 0 69 3 93 28 34 33 46 88 31 142 -14 52
-44 71 -125 78 l-65 5 0 -127z m127 62 c7 -6 13 -33 13 -61 0 -59 -20 -87 -62
-87 l-28 0 0 78 c0 43 3 82 7 86 9 9 53 -1 70 -16z"/>
<path d="M3321 757 c-13 -8 -30 -25 -37 -38 -18 -32 -17 -123 1 -158 29 -57
119 -65 166 -15 21 22 24 35 24 100 0 62 -3 77 -21 95 -27 26 -99 35 -133 16z
m89 -47 c15 -15 20 -33 20 -70 0 -37 -5 -55 -20 -70 -44 -44 -90 -8 -90 70 0
52 23 90 55 90 8 0 24 -9 35 -20z"/>
<path d="M3520 646 l0 -126 25 0 c23 0 25 4 25 45 0 32 4 45 14 45 8 0 26 -20
40 -45 20 -34 33 -45 51 -45 31 0 31 2 0 54 -25 43 -25 43 -5 61 25 23 26 75
2 105 -14 17 -32 23 -85 27 l-67 6 0 -127z m101 74 c37 -20 17 -70 -28 -70
-19 0 -23 5 -23 33 0 48 13 57 51 37z"/>
<path d="M3763 645 l-41 -125 24 0 c19 0 28 8 35 30 10 26 16 30 49 30 35 0
39 -3 45 -30 5 -23 12 -30 31 -30 13 0 24 3 24 8 0 4 -16 60 -36 125 -35 110
-39 117 -64 117 -24 0 -28 -8 -67 -125z m82 8 c6 -31 5 -33 -20 -33 -21 0 -26
4 -21 16 3 9 9 27 12 41 8 30 19 20 29 -24z"/>
<path d="M4047 763 c-4 -3 -7 -60 -7 -125 l0 -118 75 0 c68 0 75 2 75 20 0 17
-7 20 -45 20 -45 0 -45 0 -45 35 0 34 1 35 40 35 33 0 40 3 40 20 0 17 -7 20
-40 20 -38 0 -40 2 -40 30 0 29 2 30 45 30 38 0 45 3 45 20 0 18 -7 20 -68 20
-38 0 -72 -3 -75 -7z"/>
<path d="M1326 296 c-3 -28 -8 -84 -11 -123 l-6 -73 25 0 c24 0 26 3 27 53 1
28 4 62 7 75 6 19 11 13 30 -38 32 -82 53 -82 92 2 l28 63 7 -78 c7 -73 9 -77
32 -77 25 0 25 0 19 73 -16 175 -15 172 -63 166 -5 0 -19 -29 -33 -64 -14 -35
-28 -66 -31 -70 -4 -3 -19 25 -34 63 -24 61 -31 71 -56 74 -27 4 -28 3 -33
-46z"/>
<path d="M1850 323 c-29 -26 -34 -38 -38 -88 -9 -114 67 -177 157 -131 36 19
51 55 51 126 0 77 -25 110 -91 117 -41 5 -50 2 -79 -24z m98 -29 c31 -21 32
-114 1 -145 -11 -11 -27 -18 -36 -15 -8 3 -18 6 -23 6 -16 0 -32 61 -27 102 5
40 27 68 52 68 6 0 21 -7 33 -16z"/>
<path d="M2953 331 c-37 -23 -55 -86 -43 -153 25 -137 210 -103 210 39 0 111
-81 166 -167 114z m83 -29 c40 -27 46 -111 9 -147 -29 -30 -36 -30 -65 -7 -31
25 -31 119 1 144 23 19 38 22 55 10z"/>
<path d="M1220 220 l0 -120 25 0 25 0 0 120 0 120 -25 0 -25 0 0 -120z"/>
<path d="M1620 220 l0 -120 25 0 c23 0 25 4 25 40 0 39 1 40 35 40 49 0 75 29
75 83 0 61 -20 77 -98 77 l-62 0 0 -120z m85 80 c22 -8 26 -15 23 -42 -2 -28
-8 -34 -30 -36 -27 -3 -28 -2 -28 42 0 25 2 46 4 46 3 0 17 -4 31 -10z"/>
<path d="M2060 220 l0 -120 24 0 c22 0 25 5 28 42 2 23 8 43 14 45 7 2 24 -17
38 -42 22 -37 32 -45 56 -45 l30 0 -29 47 c-30 48 -30 48 -10 69 25 26 25 85
1 107 -13 12 -37 17 -85 17 l-67 0 0 -120z m94 80 c44 -16 28 -70 -21 -70 -19
0 -23 5 -23 33 0 29 6 47 16 47 1 0 14 -4 28 -10z"/>
<path d="M2260 320 c0 -16 7 -20 30 -20 l30 0 0 -100 0 -100 25 0 25 0 0 100
0 100 35 0 c28 0 35 4 35 20 0 19 -7 20 -90 20 -83 0 -90 -1 -90 -20z"/>
<path d="M2472 220 l-41 -120 25 0 c19 0 28 8 35 30 10 26 16 30 50 30 36 0
40 -3 46 -30 4 -25 10 -30 33 -30 l28 0 -35 113 c-19 61 -37 115 -40 120 -2 4
-17 7 -33 7 -27 0 -30 -4 -68 -120z m84 12 c6 -29 4 -32 -19 -32 -24 0 -25 1
-15 41 12 44 24 41 34 -9z"/>
<path d="M2680 220 l0 -120 63 0 c92 1 127 36 127 129 0 39 -6 56 -26 80 -24
29 -30 31 -95 31 l-69 0 0 -120z m122 63 c12 -10 18 -30 18 -57 0 -54 -22 -86
-61 -86 l-29 0 0 80 0 80 27 0 c14 0 35 -7 45 -17z"/>
<path d="M3160 220 l0 -120 25 0 c23 0 25 4 25 45 0 31 4 45 14 45 7 0 24 -20
37 -45 20 -37 29 -45 51 -45 16 0 28 2 28 5 0 3 -12 23 -26 45 -25 37 -26 42
-11 58 23 25 30 67 16 94 -18 34 -27 38 -96 38 l-63 0 0 -120z m87 84 c43 -12
33 -74 -12 -74 -22 0 -25 4 -25 40 0 42 2 43 37 34z"/>
<path d="M3435 328 c-10 -26 -75 -222 -75 -225 0 -2 11 -3 24 -3 18 0 27 8 35
30 9 26 15 30 46 30 31 0 37 -4 46 -30 8 -22 17 -30 36 -30 28 0 29 -11 -20
143 -30 92 -33 97 -59 97 -16 0 -31 -6 -33 -12z m49 -100 c6 -25 4 -28 -19
-28 -23 0 -25 3 -20 23 4 12 9 31 12 41 6 22 16 9 27 -36z"/>
</g>
</svg>
